<?xml version="1.0" standalone="no"?>
<!DOCTYPE svg PUBLIC "-//W3C//DTD SVG 20010904//EN"
 "http://www.w3.org/TR/2001/REC-SVG-20010904/DTD/svg10.dtd">
<svg version="1.0" xmlns="http://www.w3.org/2000/svg"
 width="841.000000pt" height="1183.000000pt" viewBox="0 0 841.000000 1183.000000"
 preserveAspectRatio="xMidYMid meet">
<metadata>
Created by potrace 1.16, written by Peter Selinger 2001-2019
</metadata>
<g transform="translate(0.000000,1183.000000) scale(0.100000,-0.100000)"
fill="#000000" stroke="none">
<path d="M2 10148 c1 -926 3 -1665 5 -1643 3 22 8 42 12 45 4 3 12 45 18 93 7
54 17 95 27 106 11 12 16 36 16 79 0 45 4 62 13 62 18 0 43 53 28 58 -14 5
-15 82 -1 82 6 0 10 20 10 45 0 42 26 115 41 115 15 0 37 79 44 158 6 69 10
82 25 82 24 0 41 46 44 117 2 32 4 73 4 91 1 21 7 32 17 32 8 0 15 8 15 19 0
10 7 24 15 31 9 7 14 19 11 26 -3 8 1 29 9 48 8 20 15 54 15 76 0 32 4 40 18
40 21 0 55 59 47 82 -4 10 3 23 19 36 31 24 33 42 6 42 -25 0 -25 11 0 52 14
23 20 27 20 15 0 -10 5 -15 11 -12 6 4 8 13 5 21 -3 8 3 31 14 52 11 20 20 54
20 74 0 34 3 38 25 38 22 0 25 4 25 39 0 22 -5 41 -12 43 -7 3 -4 15 11 35 13
17 21 36 17 41 -7 11 20 82 32 82 12 0 54 68 48 78 -8 14 24 94 51 123 17 18
23 37 23 70 0 28 9 61 25 91 14 26 25 53 25 59 0 7 6 20 13 28 7 9 20 36 27
60 8 24 20 45 27 48 7 3 13 10 13 15 0 6 11 19 25 30 18 14 24 26 20 39 -4 12
1 22 14 31 13 8 21 23 21 41 0 19 9 36 25 49 18 14 24 26 20 39 -4 12 1 22 14
31 13 8 21 23 21 40 0 15 12 39 28 56 43 47 50 58 54 83 2 16 11 25 26 27 18
3 22 10 22 40 0 41 6 52 35 68 11 6 25 26 31 44 6 18 18 39 28 45 9 7 16 20
16 29 0 15 -54 16 -640 16 l-640 0 2 -1682z"/>
<path d="M4405 11822 c50 -36 100 -192 62 -192 -9 0 -18 4 -21 9 -13 20 -306
38 -306 19 0 -7 -5 -6 -13 0 -19 16 -237 -47 -335 -97 -23 -12 -49 -21 -59
-21 -27 -1 -101 -36 -144 -71 -37 -29 -104 -120 -104 -143 -1 -6 -7 -10 -14
-8 -8 2 -10 -4 -6 -18 5 -15 2 -20 -13 -20 -16 0 -22 -9 -27 -42 -4 -24 -13
-50 -21 -58 -18 -21 -32 -88 -26 -132 3 -29 -1 -44 -21 -67 -24 -29 -29 -50
-42 -171 -6 -53 1 -133 24 -285 6 -38 15 -118 20 -177 7 -77 17 -120 33 -150
12 -24 25 -68 29 -98 10 -77 23 -129 41 -170 99 -224 146 -359 132 -381 -3 -5
-19 -9 -36 -9 -31 0 -199 -75 -252 -113 -26 -18 -28 -24 -24 -68 3 -32 1 -47
-6 -46 -6 1 -11 -11 -11 -28 -1 -16 -9 -65 -20 -108 -18 -76 -20 -79 -62 -98
-23 -10 -46 -26 -51 -36 -5 -9 -22 -17 -37 -19 -33 -3 -115 -36 -115 -46 0 -4
17 -5 38 -2 l37 5 -44 -16 c-23 -9 -65 -30 -92 -47 -27 -16 -56 -28 -63 -25
-8 3 -36 -5 -63 -17 -26 -13 -72 -34 -100 -46 -29 -13 -53 -26 -53 -30 0 -3
-16 -12 -36 -19 -20 -7 -53 -24 -73 -37 -20 -14 -44 -30 -55 -37 -10 -6 -29
-20 -41 -29 -13 -10 -27 -18 -32 -18 -18 0 -85 -78 -78 -91 5 -7 4 -10 -2 -6
-6 4 -14 0 -17 -9 -4 -9 -2 -13 5 -8 8 4 8 0 0 -14 -14 -26 -33 -39 -25 -18 3
9 1 16 -4 16 -13 0 -66 -106 -59 -117 5 -9 -19 -112 -28 -121 -3 -3 -3 10 0
29 5 31 5 32 -5 9 -7 -14 -9 -40 -6 -57 2 -19 0 -36 -6 -39 -7 -5 -9 -1 -5 9
3 10 5 17 3 17 -5 0 -76 -117 -76 -125 0 -4 -6 -21 -14 -38 -21 -48 -57 -166
-54 -180 1 -7 -10 -42 -25 -80 -30 -73 -33 -92 -15 -81 7 4 8 3 4 -5 -4 -6
-11 -9 -15 -6 -15 8 -42 -112 -39 -173 1 -39 -3 -66 -12 -77 -7 -9 -17 -53
-21 -98 -4 -45 -13 -131 -19 -192 -7 -60 -13 -128 -14 -150 -1 -22 -9 -73 -17
-114 -10 -56 -18 -75 -32 -79 -21 -5 -18 -37 3 -36 12 1 15 -18 16 -98 0 -54
-3 -98 -7 -98 -5 0 -11 -16 -15 -35 -3 -19 -10 -38 -15 -41 -12 -7 -11 -91 1
-99 6 -3 10 -23 10 -44 0 -28 8 -46 35 -75 19 -21 35 -45 35 -52 0 -8 10 -14
23 -14 21 0 21 -1 -5 -23 -33 -27 -48 -64 -48 -119 0 -33 7 -47 38 -79 38 -37
44 -61 23 -82 -6 -6 -11 -28 -11 -49 0 -31 3 -38 20 -38 18 0 19 -2 8 -22 -7
-13 -17 -26 -23 -30 -16 -11 -7 -118 13 -159 16 -33 17 -40 5 -63 -10 -18 -12
-48 -9 -94 2 -37 6 -95 8 -129 3 -36 12 -72 23 -89 15 -23 15 -29 4 -38 -8 -6
-22 -28 -33 -48 -23 -46 -17 -113 21 -202 22 -53 26 -78 28 -186 4 -206 21
-343 50 -404 9 -18 19 -56 24 -84 4 -30 19 -65 34 -85 33 -43 104 -79 160 -81
28 -1 47 -7 56 -19 9 -12 22 -17 37 -14 21 4 24 0 24 -25 0 -16 12 -52 26 -80
14 -28 46 -108 71 -177 25 -69 54 -150 64 -178 14 -39 19 -77 18 -140 -1 -66
5 -114 25 -192 14 -57 29 -108 32 -112 3 -5 9 -48 15 -97 5 -48 18 -161 30
-252 11 -91 24 -205 29 -255 5 -49 14 -115 20 -145 14 -78 57 -457 71 -635 14
-183 0 -461 -25 -510 -9 -16 -16 -44 -16 -61 0 -63 -39 -281 -59 -331 -25 -64
-18 -115 30 -225 l32 -73 8 -240 c4 -132 11 -277 15 -322 l7 -83 678 0 679 0
0 35 c0 24 -5 35 -15 35 -23 0 -18 17 8 24 17 5 19 8 8 15 -15 10 -7 46 8 36
5 -3 12 -1 15 4 7 11 -37 41 -59 41 -13 0 -13 3 -3 20 11 18 10 23 -9 38 -16
12 -21 25 -19 47 4 33 26 47 26 16 0 -24 28 -29 36 -6 8 21 -14 45 -34 38 -9
-4 -3 5 14 20 18 15 38 27 47 27 9 0 14 10 14 28 0 15 4 37 8 50 5 14 3 22 -4
22 -22 0 -37 -24 -33 -49 5 -24 4 -25 -12 -12 -14 12 -19 12 -26 2 -10 -17
-92 -23 -87 -7 2 6 20 12 40 14 41 4 44 9 21 38 -11 13 -17 15 -20 7 -7 -15
-34 -17 -34 -3 0 6 4 10 9 10 5 0 16 13 24 30 16 32 11 42 -30 54 -12 4 -31
18 -42 32 -11 14 -26 24 -33 23 -43 -5 -34 5 17 20 41 12 61 23 63 35 3 12 0
16 -8 11 -6 -4 -17 1 -24 10 -12 17 -14 16 -30 -6 -12 -16 -20 -20 -23 -11 -5
14 -33 17 -33 3 0 -5 7 -12 16 -15 8 -3 13 -10 10 -15 -4 -5 -19 -3 -36 6 -24
11 -28 18 -21 31 7 12 5 22 -7 35 -13 15 -14 20 -3 26 9 6 10 11 2 15 -6 4
-16 -2 -23 -14 -17 -27 -28 -25 -28 5 0 18 -5 25 -19 25 -15 0 -18 -5 -14 -23
4 -18 3 -19 -6 -7 -7 10 -11 11 -11 3 0 -7 -5 -13 -10 -13 -12 0 -1 53 12 58
4 2 8 25 7 50 0 26 -3 41 -6 35 -2 -7 -11 -13 -18 -13 -20 0 -47 -31 -41 -46
3 -8 -1 -14 -8 -14 -7 0 -18 -15 -24 -32 l-10 -33 -2 35 -3 35 -8 -35 c-6 -29
-7 -26 -3 15 15 166 15 305 1 355 -15 51 -15 53 14 113 16 34 29 71 29 83 0
11 5 25 11 31 23 23 58 188 68 321 23 299 32 400 41 467 5 39 14 138 20 220
13 174 19 218 53 380 33 154 58 214 100 240 88 54 101 46 323 -198 56 -61 49
-37 94 -312 11 -71 25 -146 30 -165 5 -19 16 -78 25 -130 25 -146 43 -234 75
-365 16 -66 41 -181 55 -255 24 -124 68 -339 116 -565 10 -49 48 -180 83 -290
70 -217 116 -378 116 -410 1 -34 43 -125 105 -227 l60 -97 771 -1 770 0 -4 62
c-3 35 -13 82 -23 106 -11 24 -19 49 -19 55 0 15 -72 160 -84 168 -5 4 -15 67
-22 139 -8 79 -18 136 -25 140 -7 5 -9 18 -5 33 4 16 1 29 -9 37 -8 7 -15 18
-15 26 0 7 -4 15 -10 19 -10 6 -50 -13 -62 -30 -4 -5 -8 0 -8 13 0 27 -26 30
-34 4 -5 -14 -17 -19 -46 -20 -46 -2 -49 5 -16 41 21 23 25 24 29 9 3 -9 5 2
6 26 1 40 0 42 -28 42 -15 0 -40 -9 -55 -21 l-26 -20 0 20 c0 12 5 21 10 21 8
0 -7 33 -28 60 -2 3 -8 -3 -13 -13 -14 -23 -23 -21 -39 8 -15 27 -63 35 -74
13 -3 -7 -5 1 -3 19 2 18 0 30 -4 28 -7 -5 -20 24 -40 90 -6 22 -18 52 -25 66
-30 59 -45 125 -59 268 -9 84 -22 177 -30 207 -8 30 -17 119 -20 197 -6 158
-30 476 -45 607 -10 85 -28 471 -28 605 0 39 -3 93 -7 122 -4 30 -2 66 4 85 6
18 11 87 12 153 1 141 11 207 37 267 11 23 23 54 27 68 4 14 16 36 25 50 31
44 80 137 80 153 0 8 7 20 15 27 8 7 15 20 15 29 0 9 9 27 19 40 17 22 21 23
56 11 33 -11 40 -10 64 7 14 11 38 44 53 74 25 52 27 54 63 50 31 -2 43 3 72
31 54 52 63 77 63 179 0 110 17 172 76 275 16 29 16 34 -1 107 -15 62 -16 79
-5 92 7 8 14 39 15 68 1 31 15 86 36 137 18 48 35 109 37 140 2 30 5 80 6 110
2 30 11 75 21 100 12 32 16 64 13 110 -3 37 1 84 9 109 7 24 10 54 7 67 -4 15
2 34 16 54 20 28 23 46 26 183 2 95 0 165 -7 186 -8 23 -8 35 -1 40 11 6 24
145 23 231 -2 106 -6 176 -13 185 -7 12 3 61 39 184 l25 84 -36 83 c-20 46
-36 90 -36 99 0 9 -14 49 -31 88 -17 39 -37 102 -44 141 -19 103 -41 181 -74
261 -37 90 -78 227 -86 289 -4 26 -22 83 -42 125 -19 42 -43 99 -54 128 -11
28 -26 57 -34 63 -8 7 -15 27 -15 44 0 17 -19 69 -44 116 -24 47 -54 105 -66
130 -13 25 -36 61 -52 82 -16 20 -35 54 -44 75 -37 87 -175 253 -212 253 -5 0
-35 21 -68 46 -66 52 -114 78 -189 104 -27 10 -79 31 -115 48 -36 17 -78 33
-95 37 -94 21 -205 62 -205 77 0 4 -15 8 -34 8 -43 0 -133 28 -168 52 -41 28
-46 87 -15 168 14 36 28 90 32 120 7 58 11 79 55 260 38 155 52 256 41 302 -5
20 -6 39 -3 42 11 12 -11 5 -40 -11 -29 -18 -30 -17 -47 4 -24 29 -82 37 -128
18 -46 -19 -93 -20 -93 -1 0 8 13 36 30 63 34 56 82 173 70 173 -11 0 -19 47
-9 57 4 4 10 33 12 63 3 49 4 47 5 -20 2 -53 5 -71 12 -60 5 8 10 27 10 43 0
38 33 36 57 -3 9 -16 21 -30 25 -30 4 0 9 24 11 53 3 48 3 47 5 -16 1 -45 9
-81 22 -107 22 -42 40 -52 40 -22 0 34 31 50 100 54 l65 3 0 -45 c-1 -25 -5
-66 -9 -92 -9 -55 1 -62 27 -18 19 31 50 176 48 223 -1 15 -11 52 -22 82 -17
45 -28 60 -65 81 -25 15 -64 29 -88 31 -38 5 -45 2 -70 -27 -15 -18 -30 -46
-33 -62 -5 -27 -7 -28 -24 -12 -11 10 -38 17 -66 18 -44 2 -49 5 -65 37 -22
45 -23 62 0 25 13 -22 26 -29 52 -31 19 -1 49 -5 65 -9 27 -6 32 -3 53 29 15
23 33 38 53 42 40 8 42 14 18 58 -11 21 -29 72 -40 114 -30 114 -31 121 -15
121 21 0 93 85 99 117 3 16 1 48 -5 73 -5 25 -11 95 -13 157 -4 168 -24 197
-217 320 -27 17 -56 29 -64 26 -8 -3 -27 0 -42 6 -16 7 -73 15 -128 19 l-99 7
-3 44 c-2 25 -10 54 -18 65 -18 26 -18 37 1 30 31 -12 14 14 -20 30 -19 9 -37
21 -40 26 -3 6 -16 10 -28 10 -12 0 -17 -4 -12 -8z m25 -818 c0 -21 4 -24 20
-19 15 5 22 0 29 -17 5 -13 16 -30 24 -37 12 -9 13 -18 6 -35 -13 -29 4 -76
28 -76 10 0 31 -7 47 -15 15 -8 39 -15 52 -15 13 0 24 -4 24 -8 0 -11 -61 -32
-96 -32 -16 0 -47 -5 -69 -11 -68 -18 -203 -119 -160 -119 8 0 15 -4 15 -10 0
-5 21 -10 48 -10 43 0 49 3 70 35 12 19 26 35 31 35 13 0 -33 -89 -46 -90 -23
0 -14 -30 10 -31 12 0 16 -3 10 -6 -20 -7 -17 -156 3 -194 8 -17 13 -33 10
-37 -3 -3 -6 0 -6 6 0 6 -12 12 -27 14 -24 3 -28 8 -31 41 -2 21 -9 40 -17 43
-16 7 -12 88 5 109 21 25 1 37 -48 30 -47 -7 -77 -22 -82 -40 -1 -5 -8 -17
-14 -27 -11 -15 -17 -15 -91 3 -87 21 -173 25 -278 14 -86 -9 -90 8 -4 24 92
18 94 19 101 52 9 47 43 87 105 127 31 19 76 53 101 74 25 22 67 54 95 71 44
29 50 36 52 72 1 27 9 44 23 54 11 7 20 19 20 26 0 12 14 22 33 24 4 1 7 -11
7 -25z m-783 -533 c14 -8 12 -9 -13 -5 -31 6 -66 -7 -108 -40 -24 -20 -58
-123 -47 -144 4 -10 11 -38 14 -65 7 -49 28 -99 55 -129 34 -39 45 -7 12 35
-14 18 -20 42 -21 84 -1 46 -3 52 -9 28 l-7 -30 -7 28 c-10 34 -2 67 22 93 11
11 22 30 26 41 9 27 42 57 55 49 6 -4 8 -21 5 -39 -4 -26 -3 -29 6 -14 6 9 20
17 30 17 12 0 20 -7 20 -17 1 -14 4 -12 15 7 7 14 16 23 18 20 3 -3 14 3 26
14 13 12 28 16 43 13 22 -6 84 -80 100 -119 4 -10 12 -18 18 -18 5 0 10 -8 11
-17 0 -14 2 -15 6 -3 3 8 9 17 14 20 4 3 10 37 12 75 3 39 10 83 16 99 l11 29
73 -7 c100 -10 150 -24 223 -62 35 -18 79 -36 98 -40 21 -3 38 -13 41 -24 3
-9 19 -30 35 -46 16 -16 30 -37 30 -46 0 -10 5 -18 10 -18 6 0 10 -7 10 -15 0
-9 18 -38 40 -66 22 -28 40 -58 40 -66 0 -15 -38 -56 -118 -125 -32 -28 -42
-44 -42 -67 0 -29 -2 -30 -20 -19 -17 11 -22 10 -29 -1 -5 -8 -16 -11 -24 -8
-9 3 -18 1 -21 -6 -3 -7 -5 3 -3 21 3 30 2 31 -17 19 -22 -13 -43 -14 -87 -2
-20 5 -28 2 -33 -10 -4 -12 -13 -15 -31 -11 -19 5 -25 2 -25 -10 0 -23 -12 -9
-27 29 l-11 32 -1 -37 c-1 -21 -6 -38 -12 -38 -5 0 -8 4 -4 9 11 19 -17 23
-36 5 -24 -22 -38 -10 -20 17 10 17 10 24 -2 37 -7 10 -21 34 -31 54 -23 52
-76 88 -76 53 0 -20 29 -78 44 -87 6 -4 7 -10 3 -15 -4 -4 -17 -2 -28 5 -29
18 -41 5 -37 -41 1 -25 -2 -42 -10 -45 -7 -2 -10 -13 -6 -26 3 -14 -1 -29 -10
-39 -9 -8 -16 -27 -16 -41 0 -25 -11 -31 -46 -27 -6 1 -16 -10 -22 -24 -8 -18
-8 -25 -1 -25 6 0 -1 -16 -15 -35 -20 -25 -25 -39 -18 -51 6 -11 4 -30 -6 -55
-14 -36 -18 -39 -54 -39 -29 0 -38 -4 -39 -17 0 -11 -5 -6 -11 11 -8 21 -7 53
2 115 13 79 16 108 19 169 1 20 5 22 39 16 34 -5 42 -3 60 21 12 15 22 42 22
59 0 17 7 55 14 84 13 48 13 82 -1 82 -3 0 -18 -13 -33 -30 -22 -24 -36 -30
-68 -30 -125 0 -188 92 -219 322 -6 44 19 117 51 147 49 46 92 56 133 32z
m1087 -724 c22 -12 40 -26 40 -32 1 -5 -23 -11 -51 -13 -38 -2 -53 -7 -53 -18
0 -7 -4 -14 -9 -14 -5 0 -11 -18 -15 -41 l-7 -41 -31 24 c-32 25 -56 80 -38
86 6 2 10 12 10 21 0 25 11 33 27 19 13 -11 27 -5 29 13 1 5 2 11 3 14 3 13
60 2 95 -18z"/>
<path d="M3625 10296 c-56 -17 -71 -47 -59 -122 7 -44 14 -60 27 -62 13 -3 17
4 17 32 0 25 7 40 26 55 15 12 31 21 35 21 18 0 8 -37 -16 -58 -28 -25 -32
-42 -10 -42 8 0 15 3 15 8 0 4 13 16 30 27 36 24 53 61 48 106 l-4 34 -19 -32
c-11 -18 -22 -33 -25 -33 -3 0 -4 18 -2 40 5 45 2 46 -63 26z"/>
<path d="M6980 11822 c0 -5 15 -22 33 -38 17 -17 41 -49 52 -71 11 -23 28 -44
38 -47 9 -2 17 -11 17 -20 0 -21 47 -95 64 -102 8 -3 14 -22 14 -46 1 -23 5
-44 9 -47 5 -3 17 -27 27 -53 10 -27 24 -48 32 -48 8 0 14 -6 14 -13 0 -7 5
-18 11 -24 7 -7 20 -38 31 -70 11 -32 29 -68 40 -80 22 -24 60 -122 51 -136
-2 -4 9 -24 27 -43 17 -20 38 -53 46 -75 9 -21 20 -39 25 -39 5 0 9 -27 9 -60
0 -33 4 -60 9 -60 12 0 71 -87 71 -105 0 -7 -5 -15 -12 -17 -9 -3 -9 -6 0 -12
7 -4 12 -2 12 3 0 6 5 11 10 11 6 0 10 -18 10 -41 0 -22 10 -63 21 -90 16 -37
20 -61 16 -93 -5 -32 -2 -47 8 -56 12 -10 15 -10 15 0 0 10 3 10 15 0 8 -7 15
-19 15 -26 0 -8 5 -14 10 -14 6 0 10 -18 10 -40 0 -22 4 -40 9 -40 5 0 11 -23
13 -50 3 -28 12 -58 21 -68 9 -10 15 -27 15 -38 -2 -25 21 -84 33 -84 5 0 9
-19 10 -42 0 -31 3 -38 8 -23 8 19 8 19 19 -2 7 -12 12 -42 12 -67 0 -35 5
-49 24 -63 20 -17 23 -26 20 -73 -2 -30 -1 -47 2 -37 11 34 21 7 16 -43 -4
-46 -3 -50 17 -50 18 0 21 -6 21 -40 0 -22 5 -40 10 -40 6 0 10 -18 10 -40 0
-32 4 -40 18 -40 16 0 20 -14 30 -102 7 -57 12 -115 12 -129 0 -15 7 -32 15
-39 8 -7 15 -21 15 -31 0 -11 5 -19 10 -19 6 0 10 -18 10 -40 0 -28 -4 -40
-14 -40 -9 0 -12 -7 -9 -21 4 -14 0 -25 -11 -31 -18 -10 -22 -28 -5 -28 6 0
27 -16 47 -35 30 -28 34 -37 23 -44 -12 -8 -11 -15 10 -45 13 -20 28 -36 32
-36 5 0 7 -21 5 -47 -2 -30 3 -61 13 -83 9 -19 22 -88 29 -152 8 -73 18 -118
24 -118 8 0 24 -99 46 -277 18 -153 37 -280 41 -283 5 -3 16 -107 24 -230 9
-124 24 -286 34 -360 18 -134 19 -117 20 2228 l1 2362 -715 0 c-393 0 -715 -4
-715 -8z"/>
<path d="M8382 4026 c-8 -133 -18 -217 -27 -240 -8 -19 -15 -54 -15 -76 0 -22
-4 -40 -8 -40 -5 0 -17 -72 -27 -160 -10 -88 -22 -160 -27 -160 -4 0 -8 -26
-8 -59 0 -96 -12 -181 -25 -181 -8 0 -16 -40 -25 -120 -7 -66 -16 -120 -20
-120 -5 0 -11 -36 -15 -80 -5 -53 -11 -80 -20 -80 -8 0 -16 -38 -25 -120 -7
-66 -17 -120 -21 -120 -5 0 -9 -16 -9 -36 0 -40 -16 -77 -30 -69 -21 13 -38
-39 -31 -93 4 -29 4 -55 -1 -58 -13 -9 -48 6 -48 21 0 14 -27 28 -33 17 -3 -4
-1 -32 3 -62 4 -30 3 -70 -2 -87 -8 -28 -14 -33 -38 -33 -28 0 -30 -2 -30 -39
0 -26 -5 -41 -16 -45 -25 -9 -14 -51 14 -50 33 1 31 -42 -3 -50 -15 -4 -27
-16 -31 -31 -3 -14 -10 -25 -15 -25 -5 0 -9 -8 -9 -17 -1 -17 -1 -17 -11 0
-12 21 -29 13 -29 -14 0 -11 7 -19 16 -19 8 0 12 -5 9 -10 -5 -8 -11 -8 -19
-1 -9 7 -17 4 -29 -9 -23 -28 -22 -29 23 -36 22 -4 40 -11 40 -17 0 -5 8 -16
18 -23 10 -8 12 -13 5 -14 -8 0 -13 -15 -13 -40 0 -22 -4 -40 -8 -40 -5 0 -21
-25 -36 -56 -30 -60 -52 -76 -71 -51 -7 9 -15 14 -18 10 -13 -12 -7 -54 8 -59
10 -4 15 -20 15 -45 0 -22 -7 -56 -15 -76 -19 -45 -19 -43 10 -43 16 0 25 -6
25 -15 0 -11 -12 -15 -44 -15 -25 0 -48 5 -51 10 -9 14 -16 12 -44 -9 -23 -17
-23 -20 -9 -35 9 -9 24 -16 32 -16 13 0 15 -14 12 -92 -4 -86 -6 -94 -32 -116
-21 -19 -24 -26 -13 -32 7 -5 10 -12 6 -17 -5 -4 -12 -1 -16 6 -12 19 -31 5
-31 -23 0 -12 -5 -27 -12 -34 -9 -9 -9 -12 0 -12 30 0 4 -105 -49 -200 -5 -8
-21 -39 -35 -67 -15 -29 -33 -53 -41 -53 -9 0 -13 -13 -13 -40 0 -22 -4 -40
-10 -40 -5 0 -10 -11 -10 -24 0 -19 -4 -22 -25 -18 -18 3 -27 -1 -32 -14 -4
-10 -2 -19 5 -22 17 -5 15 -77 -2 -91 -16 -14 -46 -4 -46 14 0 23 -15 25 -28
5 -9 -15 -9 -22 1 -32 17 -16 28 -58 16 -58 -5 0 -9 -7 -9 -15 0 -11 -11 -15
-40 -15 -29 0 -40 -4 -40 -15 0 -11 11 -15 40 -15 29 0 40 -4 40 -15 0 -9 -6
-12 -15 -9 -8 4 -15 1 -15 -5 0 -6 -8 -10 -17 -9 -10 1 -33 -5 -50 -12 -25
-11 -33 -20 -32 -40 0 -14 -3 -37 -7 -53 l-6 -27 636 0 636 0 0 2115 c0 1163
-4 2115 -8 2115 -5 0 -14 -92 -20 -204z"/>
<path d="M1 1717 l-1 -1718 643 2 644 1 -5 24 c-4 20 -10 24 -44 24 -38 0 -39
1 -34 28 5 22 2 29 -16 37 -13 6 -24 20 -26 33 -4 26 -15 28 -36 7 -16 -17
-30 -20 -21 -5 3 5 2 26 -4 45 -5 20 -6 35 -1 35 5 0 7 7 4 15 -4 9 -11 15
-18 14 -25 -3 -37 2 -33 14 2 6 17 12 33 12 22 0 30 5 32 23 3 18 -1 22 -21
22 -14 0 -32 3 -41 6 -20 8 -21 54 -2 54 33 0 24 20 -14 31 -49 15 -70 36 -49
50 12 7 11 9 -3 9 -9 0 -20 -5 -24 -11 -4 -6 -13 1 -24 18 -20 32 -8 60 14 30
15 -19 41 -23 52 -6 8 14 -14 29 -33 22 -7 -3 -13 0 -13 6 0 6 -6 11 -13 11
-20 0 -67 24 -67 34 0 5 24 7 53 4 55 -6 77 -2 77 13 0 5 -17 9 -37 9 -45 1
-87 25 -60 36 10 3 17 12 17 19 0 23 -22 29 -36 11 -11 -15 -12 -11 -12 31 0
26 4 53 9 59 6 7 6 20 0 35 -7 18 -10 19 -10 7 -1 -10 -6 -18 -12 -18 -7 0 -8
-13 -4 -39 6 -34 4 -39 -17 -45 -33 -8 -40 -7 -33 4 3 5 3 15 -1 22 -5 8 -10
6 -15 -8 -7 -17 -8 -16 -8 5 -1 14 -8 33 -18 43 -14 16 -14 18 -1 18 17 0 28
39 28 97 0 39 -15 37 -23 -4 -10 -43 -24 -60 -38 -46 -8 8 -8 20 1 47 9 28 9
40 0 50 -15 19 5 31 42 27 37 -3 52 7 37 25 -6 7 -16 11 -22 7 -7 -4 -8 5 -4
26 8 40 -11 38 -31 -2 -16 -32 -33 -34 -50 -6 -11 16 -16 18 -28 9 -16 -14
-16 -14 -14 62 1 42 -2 58 -12 58 -19 0 -43 41 -29 50 7 4 2 12 -14 20 -20 11
-25 19 -21 36 4 13 -2 31 -14 47 -11 14 -20 39 -20 56 0 30 -39 81 -63 81 -7
1 -1 10 12 21 l24 20 -22 15 c-12 8 -19 19 -16 24 3 5 1 11 -5 15 -5 3 -10 19
-10 36 0 19 -5 29 -15 29 -11 0 -15 11 -15 40 0 36 -2 40 -25 40 -22 0 -25 4
-25 40 0 29 4 40 15 40 18 0 10 29 -13 48 -19 15 -54 101 -46 114 6 10 -36 78
-48 78 -5 0 -8 7 -8 15 0 8 5 15 10 15 17 0 11 40 -12 83 -17 30 -20 41 -10
45 10 3 10 7 2 17 -7 9 -9 23 -4 37 9 25 7 38 -7 76 -9 24 -10 24 -24 6 -14
-18 -14 -18 -15 4 0 12 -4 22 -10 22 -5 0 -10 15 -10 33 0 18 -9 52 -20 75
-22 46 -27 128 -8 135 10 3 10 8 2 16 -8 9 -14 8 -24 -4 -7 -8 -16 -15 -20
-15 -9 0 -20 91 -25 197 -2 39 -10 84 -18 100 -8 15 -18 63 -22 106 -4 42 -11
77 -16 77 -5 0 -9 17 -9 38 0 20 -6 57 -15 82 -8 25 -21 99 -28 165 -13 107
-15 -66 -16 -1598z"/>
</g>
</svg>
