<?xml version="1.0" standalone="no"?>
<!DOCTYPE svg PUBLIC "-//W3C//DTD SVG 20010904//EN"
 "http://www.w3.org/TR/2001/REC-SVG-20010904/DTD/svg10.dtd">
<svg version="1.0" xmlns="http://www.w3.org/2000/svg"
 width="1920.000000pt" height="1152.000000pt" viewBox="0 0 1920.000000 1152.000000"
 preserveAspectRatio="xMidYMid meet">
<metadata>
Created by potrace 1.16, written by Peter Selinger 2001-2019
</metadata>
<g transform="translate(0.000000,1152.000000) scale(0.100000,-0.100000)"
fill="#000000" stroke="none">
<path d="M0 5760 l0 -5760 9600 0 9600 0 0 5760 0 5760 -9600 0 -9600 0 0
-5760z m11465 2927 c264 -53 482 -167 653 -338 303 -304 454 -752 421 -1247
-42 -638 -411 -1143 -942 -1291 -161 -45 -236 -52 -547 -50 -162 0 -333 5
-380 9 l-85 7 85 3 c75 3 79 4 40 10 -25 4 -40 8 -35 10 6 2 -12 6 -40 10 -33
5 0 7 102 8 83 0 155 2 160 4 4 3 22 5 38 6 270 16 543 217 708 522 308 570
295 1421 -31 1913 -135 205 -329 336 -547 371 -16 2 -131 5 -255 6 -127 1
-212 6 -195 10 17 4 46 8 65 9 19 1 42 6 50 11 29 19 -9 27 -103 23 -67 -3
-88 -1 -77 7 23 17 825 6 915 -13z"/>
</g>
</svg>
